<?xml version="1.0" encoding="UTF-8"?>
<svg id="Layer_1" data-name="Layer 1" xmlns="http://www.w3.org/2000/svg" viewBox="0 0 493.38 63.61">
  <defs>
    <style>
      .cls-1 {
        fill: #02182b;
      }

      .cls-2 {
        stroke: #ad0000;
      }

      .cls-2, .cls-3, .cls-4 {
        stroke-miterlimit: 10;
      }

      .cls-2, .cls-5 {
        fill: #ff2727;
      }

      .cls-6 {
        fill: #3f0000;
      }

      .cls-7, .cls-4 {
        fill: #f03127;
      }

      .cls-8 {
        fill: #701111;
      }

      .cls-3 {
        fill: #437a89;
        stroke: #3ca6bf;
      }

      .cls-4 {
        stroke: #f03127;
      }

      .cls-9 {
        fill: #ad0000;
      }
    </style>
  </defs>
  <path class="cls-8" d="M290.73,2.64c6.28,0,11.04,1.62,14.29,4.87,3.25,3.25,4.87,8.01,4.87,14.29v20c0,6.28-1.62,11.04-4.87,14.29-3.25,3.25-8.01,4.87-14.29,4.87h-32.49V2.64h32.49ZM294.89,21.81c0-5-2.5-7.5-7.5-7.5h-14.16v34.99h14.16c5,0,7.5-2.5,7.5-7.5v-20Z"/>
  <path class="cls-6" d="M290.73,61.94h-33.47V1.66h33.47c6.52,0,11.56,1.74,14.98,5.16,3.42,3.43,5.16,8.47,5.16,14.98v20c0,6.52-1.74,11.56-5.16,14.98-3.42,3.42-8.46,5.16-14.98,5.16ZM259.21,59.98h31.51c5.98,0,10.55-1.54,13.59-4.59,3.04-3.04,4.59-7.62,4.59-13.59v-20c0-5.98-1.54-10.55-4.59-13.59-3.04-3.04-7.62-4.59-13.59-4.59h-31.51v56.36ZM287.39,50.28h-15.14V13.33h15.14c5.55,0,8.48,2.93,8.48,8.48v20c0,5.55-2.93,8.48-8.48,8.48ZM274.21,48.32h13.18c4.45,0,6.52-2.07,6.52-6.52v-20c0-4.45-2.07-6.52-6.52-6.52h-13.18v33.03Z"/>
  <path class="cls-9" d="M262.03,57.16V6.45h28.69c5.2,0,9.11,1.27,11.6,3.76,2.5,2.5,3.76,6.4,3.76,11.6v20c0,5.2-1.27,9.11-3.76,11.6-2.49,2.5-6.4,3.76-11.6,3.76h-28.69ZM269.43,53.1h17.96c7.08,0,11.3-4.22,11.3-11.3v-20c0-7.08-4.22-11.3-11.3-11.3h-17.96v42.59Z"/>
  <path class="cls-7" d="M290.73,57.75h-29.28V5.86h29.28c5.36,0,9.41,1.32,12.02,3.93,2.61,2.61,3.93,6.65,3.93,12.02v20c0,5.36-1.32,9.41-3.93,12.02-2.61,2.61-6.65,3.93-12.02,3.93ZM262.62,56.57h28.1c5.04,0,8.8-1.21,11.18-3.59,2.38-2.38,3.59-6.14,3.59-11.18v-20c0-5.04-1.21-8.8-3.59-11.18-2.38-2.38-6.14-3.59-11.18-3.59h-28.1v49.54ZM287.39,53.69h-18.55V9.92h18.55c7.44,0,11.89,4.44,11.89,11.89v20c0,7.44-4.44,11.89-11.89,11.89ZM270.02,52.51h17.38c6.71,0,10.71-4,10.71-10.71v-20c0-6.71-4-10.71-10.71-10.71h-17.38v41.42Z"/>
  <path class="cls-8" d="M359.14,2.64h15v42.49c0,5.83-1.32,10.07-3.96,12.71-2.64,2.64-6.87,3.96-12.7,3.96h-19.16c-5.83,0-10.07-1.32-12.7-3.96-2.64-2.64-3.96-6.87-3.96-12.71V2.64h15v42.49c0,3.33,1.67,5,5,5h12.5c3.33,0,5-1.67,5-5V2.64Z"/>
  <path class="cls-6" d="M357.47,62.78h-19.16c-6.08,0-10.58-1.43-13.4-4.25-2.82-2.82-4.24-7.32-4.24-13.4V1.66h16.96v43.47c0,2.78,1.24,4.02,4.02,4.02h12.5c2.78,0,4.02-1.24,4.02-4.02V1.66h16.96v43.47c0,6.07-1.43,10.58-4.24,13.4-2.82,2.82-7.32,4.25-13.4,4.25ZM322.63,3.62v41.51c0,5.54,1.23,9.58,3.67,12.01,2.43,2.44,6.48,3.67,12.01,3.67h19.16c5.54,0,9.58-1.23,12.01-3.67,2.44-2.44,3.67-6.48,3.67-12.01V3.62h-13.03v41.51c0,3.86-2.12,5.98-5.98,5.98h-12.5c-3.86,0-5.98-2.12-5.98-5.98V3.62h-13.03Z"/>
  <path class="cls-9" d="M338.31,58c-4.76,0-8.13-.96-10.02-2.84-1.89-1.89-2.84-5.26-2.84-10.02V6.45h7.39v38.69c0,5.43,3.37,8.8,8.8,8.8h12.5c5.43,0,8.8-3.37,8.8-8.8V6.45h7.39v38.69c0,4.76-.96,8.13-2.84,10.02-1.89,1.89-5.26,2.84-10.02,2.84h-19.16Z"/>
  <path class="cls-7" d="M357.47,58.58h-19.16c-4.92,0-8.43-1.01-10.43-3.02-2-2-3.02-5.51-3.02-10.43V5.86h8.57v39.28c0,5.07,3.15,8.21,8.21,8.21h12.5c5.06,0,8.21-3.15,8.21-8.21V5.86h8.57v39.28c0,4.92-1.01,8.43-3.02,10.43-2,2-5.51,3.02-10.43,3.02ZM326.04,7.03v38.1c0,4.6.9,7.83,2.67,9.6,1.77,1.77,5,2.67,9.6,2.67h19.16c4.6,0,7.83-.9,9.6-2.67,1.77-1.77,2.67-5,2.67-9.6V7.03h-6.22v38.1c0,5.79-3.6,9.39-9.39,9.39h-12.5c-5.79,0-9.39-3.6-9.39-9.39V7.03h-6.22Z"/>
  <path class="cls-8" d="M433.81,60.96h-46.24V2.64h46.24v11.66h-31.24v11.25h24.58v11.66h-24.58v12.08h31.24v11.66Z"/>
  <path class="cls-6" d="M434.79,61.94h-48.2V1.66h48.2v13.63h-31.24v9.28h24.58v13.63h-24.58v10.12h31.24v13.63ZM388.55,59.98h44.28v-9.7h-31.24v-14.04h24.58v-9.7h-24.58v-13.21h31.24V3.62h-44.28v56.36Z"/>
  <polygon class="cls-9" points="391.37 57.16 391.37 6.45 430.01 6.45 430.01 10.51 398.76 10.51 398.76 29.36 423.34 29.36 423.34 33.42 398.76 33.42 398.76 53.1 430.01 53.1 430.01 57.16 391.37 57.16"/>
  <path class="cls-7" d="M430.59,57.75h-39.81V5.86h39.81v5.24h-31.24v17.67h24.58v5.24h-24.58v18.51h31.24v5.24ZM391.96,56.57h37.46v-2.88h-31.24v-20.86h24.58v-2.88h-24.58V9.92h31.24v-2.88h-37.46v49.54Z"/>
  <path class="cls-8" d="M461.99,49.3h30.41v11.66h-45.41V2.64h15v46.66Z"/>
  <path class="cls-6" d="M493.38,61.94h-47.37V1.66h16.96v46.66h30.41v13.63ZM447.98,59.98h43.44v-9.7h-30.41V3.62h-13.03v56.36Z"/>
  <polygon class="cls-9" points="450.8 57.16 450.8 6.45 458.19 6.45 458.19 53.1 488.6 53.1 488.6 57.16 450.8 57.16"/>
  <path class="cls-7" d="M489.19,57.75h-38.98V5.86h8.57v46.66h30.41v5.24ZM451.38,56.57h36.62v-2.88h-30.41V7.03h-6.22v49.54Z"/>
  <g>
    <path class="cls-5" d="M236.05,31.18h-2.43c-.32-7.37-6.24-13.28-13.61-13.58v-2.35c0-.29-.23-.52-.52-.52s-.52.23-.52.52v2.34c-7.47.23-13.49,6.23-13.75,13.69h-2.28c-.29,0-.52.23-.52.52s.23.52.52.52h2.28c.27,7.46,6.29,13.45,13.75,13.68v2.35c0,.29.23.52.52.52s.52-.23.52-.52v-2.35c7.44-.3,13.4-6.32,13.61-13.78h2.42c.29,0,.52-.23.52-.52s-.23-.52-.52-.52ZM220.01,44.78v-4.56c0-.29-.23-.52-.52-.52s-.52.23-.52.52v4.56c-6.79-.23-12.26-5.68-12.54-12.46h4.63c.29,0,.52-.23.52-.52s-.23-.52-.52-.52h-4.63c.26-6.79,5.74-12.25,12.54-12.48v4.57c0,.29.23.52.52.52s.52-.23.52-.52v-4.57c6.7.3,12.08,5.67,12.39,12.36h-4.49c-.29,0-.52.23-.52.52s.23.52.52.52h4.49c-.22,6.79-5.63,12.26-12.4,12.56Z"/>
    <path class="cls-9" d="M219.49,49.06c-.39,0-.71-.32-.71-.71v-2.17c-7.39-.32-13.38-6.28-13.75-13.67h-2.1c-.39,0-.71-.32-.71-.71s.32-.71.71-.71h2.1c.35-7.4,6.34-13.37,13.75-13.69v-2.16c0-.39.32-.71.71-.71s.71.32.71.71v2.17c7.27.39,13.2,6.3,13.6,13.57h2.25c.39,0,.71.32.71.71s-.32.71-.71.71h-2.24c-.31,7.38-6.24,13.38-13.61,13.77v2.18c0,.39-.32.71-.71.71ZM202.94,31.47c-.18,0-.34.15-.34.34s.15.34.34.34h2.46v.18c.28,7.34,6.24,13.27,13.58,13.5h.18v2.53c0,.19.15.34.34.34s.34-.15.34-.34v-2.53h.18c7.32-.31,13.22-6.28,13.44-13.61v-.18h2.6c.18,0,.34-.15.34-.34s-.15-.34-.34-.34h-2.6v-.18c-.32-7.22-6.22-13.11-13.44-13.4h-.18v-2.53c0-.19-.15-.34-.34-.34s-.34.15-.34.34v2.52h-.18c-7.35.23-13.31,6.17-13.58,13.52v.18h-2.46ZM219.16,44.98h-.19c-6.86-.24-12.44-5.79-12.72-12.64v-.19s4.82,0,4.82,0c.19,0,.34-.15.34-.34s-.15-.34-.34-.34h-4.83v-.19c.27-6.86,5.86-12.42,12.72-12.65h.19s0,4.76,0,4.76c0,.19.15.34.34.34s.34-.15.34-.34v-4.76h.19c6.84.32,12.25,5.71,12.57,12.55v.19s-4.67,0-4.67,0c-.18,0-.34.15-.34.34s.15.34.34.34h4.69v.19c-.22,6.84-5.75,12.43-12.58,12.74h-.19s0-4.74,0-4.74c0-.18-.15-.34-.34-.34s-.34.15-.34.34v4.76ZM206.63,32.51c.36,6.51,5.65,11.76,12.16,12.08v-4.37c0-.39.32-.71.71-.71s.71.32.71.71v4.36c6.49-.39,11.72-5.69,12.02-12.18h-4.3c-.39,0-.71-.32-.71-.71s.32-.71.71-.71h4.29c-.4-6.49-5.52-11.6-12.01-11.98v4.37c0,.39-.32.71-.71.71s-.71-.32-.71-.71v-4.38c-6.52.32-11.81,5.58-12.16,12.1h4.44c.39,0,.71.32.71.71s-.32.71-.71.71h-4.44Z"/>
  </g>
  <g>
    <path class="cls-5" d="M219.49,49.07c-.4,0-.72-.32-.72-.72v-2.16c-3.59-.16-6.96-1.64-9.52-4.18-2.55-2.54-4.05-5.9-4.23-9.49h-2.09c-.4,0-.72-.32-.72-.72s.32-.72.72-.72h2.09c.17-3.59,1.67-6.96,4.22-9.5,2.56-2.54,5.93-4.03,9.52-4.19v-2.15c0-.4.32-.72.72-.72s.72.32.72.72v2.16c3.54.19,6.87,1.68,9.39,4.19,2.52,2.51,4.01,5.84,4.21,9.38h2.24c.4,0,.72.32.72.72s-.32.72-.72.72h-2.23c-.15,3.58-1.62,6.96-4.15,9.51-2.53,2.56-5.88,4.06-9.46,4.26v2.17c0,.4-.32.72-.72.72ZM202.94,31.48c-.18,0-.32.15-.32.32s.15.32.32.32h2.47v.19c.14,3.56,1.6,6.9,4.13,9.42,2.53,2.52,5.88,3.96,9.44,4.07h.19v2.55c0,.18.15.32.32.32s.32-.15.32-.32v-2.54h.19c3.55-.15,6.88-1.63,9.38-4.16,2.5-2.53,3.94-5.88,4.04-9.44v-.19h2.62c.18,0,.32-.15.32-.32s-.15-.32-.32-.32h-2.61v-.19c-.16-3.51-1.62-6.82-4.11-9.31-2.49-2.49-5.8-3.94-9.32-4.08h-.19v-2.54c0-.18-.15-.32-.32-.32s-.32.15-.32.32v2.53h-.19c-3.56.12-6.92,1.56-9.45,4.08-2.53,2.52-3.99,5.87-4.12,9.43v.19h-2.48ZM219.17,44.99h-.2c-3.33-.12-6.48-1.48-8.85-3.84-2.37-2.36-3.75-5.49-3.88-8.82v-.2s4.83,0,4.83,0c.18,0,.32-.15.32-.32s-.15-.32-.32-.32h-4.84v-.2c.14-3.34,1.51-6.47,3.88-8.83,2.37-2.36,5.51-3.72,8.85-3.84h.2s0,4.77,0,4.77c0,.18.15.32.32.32s.32-.15.32-.32v-4.77h.21c3.29.16,6.38,1.52,8.72,3.85,2.33,2.33,3.7,5.42,3.86,8.71v.21s-4.68,0-4.68,0c-.18,0-.32.15-.32.32s.15.32.32.32h4.7v.2c-.11,3.33-1.46,6.47-3.81,8.84-2.34,2.37-5.46,3.76-8.79,3.91h-.21s0-4.76,0-4.76c0-.18-.15-.32-.32-.32s-.32.15-.32.32v4.77ZM206.64,32.52c.18,3.16,1.51,6.11,3.75,8.35,2.25,2.24,5.22,3.55,8.38,3.71v-4.36c0-.4.32-.72.72-.72s.72.32.72.72v4.35c3.15-.19,6.09-1.53,8.32-3.78,2.23-2.25,3.53-5.22,3.68-8.38h-4.29c-.4,0-.72-.32-.72-.72s.32-.72.72-.72h4.28c-.2-3.11-1.52-6.03-3.73-8.24-2.22-2.21-5.14-3.53-8.25-3.72v4.36c0,.4-.32.72-.72.72s-.72-.32-.72-.72v-4.37c-3.16.16-6.13,1.47-8.38,3.71-2.25,2.24-3.58,5.2-3.75,8.36h4.43c.4,0,.72.32.72.72s-.32.72-.72.72h-4.43Z"/>
    <path class="cls-9" d="M219.49,49.26c-.5,0-.9-.4-.9-.9v-1.98c-3.57-.2-6.92-1.7-9.46-4.22-2.54-2.53-4.05-5.87-4.27-9.44h-1.92c-.5,0-.9-.4-.9-.9s.4-.9.9-.9h1.92c.22-3.57,1.73-6.92,4.27-9.45,2.54-2.53,5.9-4.03,9.47-4.23v-1.97c0-.5.4-.9.9-.9s.9.4.9.9v1.98c3.52.23,6.83,1.73,9.34,4.23,2.51,2.5,4.01,5.81,4.25,9.33h2.06c.5,0,.9.4.9.9s-.4.9-.9.9h-2.05c-.19,3.56-1.68,6.91-4.2,9.46-2.51,2.54-5.85,4.07-9.4,4.3v1.99c0,.5-.4.9-.9.9ZM202.94,31.28c-.29,0-.53.24-.53.53s.24.53.53.53h2.27v.18c.18,3.54,1.67,6.86,4.18,9.37,2.52,2.5,5.85,3.97,9.39,4.13h.18v2.34c0,.29.24.53.53.53s.53-.24.53-.53v-2.34h.18c3.53-.2,6.84-1.69,9.34-4.21,2.49-2.52,3.95-5.86,4.1-9.39v-.18h2.41c.29,0,.53-.24.53-.53s-.24-.53-.53-.53h-2.41v-.17c-.21-3.49-1.68-6.78-4.16-9.26-2.48-2.48-5.77-3.95-9.27-4.14h-.18v-2.34c0-.29-.24-.53-.53-.53s-.53.24-.53.53v2.33h-.18c-3.54.16-6.88,1.63-9.4,4.14-2.52,2.51-4,5.84-4.17,9.38v.18h-2.28ZM219.49,48.86c-.28,0-.51-.23-.51-.51v-2.36c-3.62-.11-7.02-1.58-9.58-4.13-2.56-2.55-4.04-5.94-4.18-9.54h0s-2.29-.01-2.29-.01c-.28,0-.51-.23-.51-.51s.23-.51.51-.51h2.29c.13-3.62,1.61-7.01,4.17-9.56,2.56-2.55,5.96-4.02,9.57-4.13h.01v-2.35c0-.28.23-.51.51-.51s.51.23.51.51v2.36c3.57.15,6.93,1.62,9.45,4.14,2.53,2.52,4,5.87,4.16,9.43h0s2.44.01,2.44.01c.28,0,.51.23.51.51s-.23.51-.51.51h-2.43c-.11,3.61-1.56,7.01-4.1,9.58-2.54,2.56-5.91,4.06-9.51,4.2h-.01v2.37c0,.28-.23.51-.51.51ZM202.94,31.67c-.08,0-.14.06-.14.14s.06.14.14.14h2.65v.37c.14,3.51,1.59,6.81,4.08,9.29,2.5,2.48,5.8,3.91,9.32,4.02h.37v2.73c0,.08.06.14.14.14s.14-.06.14-.14v-2.72l.37-.02c3.5-.14,6.79-1.6,9.26-4.09,2.47-2.5,3.89-5.81,3.99-9.31v-.37h2.8c.08,0,.14-.06.14-.14s-.06-.14-.14-.14h-2.79l-.02-.37c-.15-3.47-1.59-6.73-4.05-9.19-2.46-2.46-5.73-3.89-9.19-4.03l-.37-.02v-2.71c0-.08-.06-.14-.14-.14s-.14.06-.14.14v2.71h-.37c-3.52.12-6.83,1.55-9.32,4.04-2.5,2.48-3.94,5.79-4.06,9.3v.37h-2.66ZM219.36,45.18h-.4c-3.38-.13-6.57-1.51-8.97-3.9-2.4-2.39-3.8-5.56-3.93-8.94l-.02-.4h5.03c.08,0,.14-.06.14-.14s-.06-.14-.14-.14h-5.03l.02-.4c.13-3.38,1.53-6.56,3.93-8.95,2.4-2.39,5.59-3.77,8.98-3.89h.4s0,4.96,0,4.96c0,.08.06.14.14.14s.14-.06.14-.14v-4.97l.4.02c3.33.15,6.47,1.53,8.84,3.9,2.37,2.36,3.76,5.5,3.91,8.83l.02.4h-4.89c-.08,0-.14.06-.14.14s.06.14.14.14h4.89v.39c-.12,3.38-1.49,6.56-3.87,8.97-2.38,2.4-5.54,3.81-8.91,3.96l-.4.02v-4.96c0-.08-.06-.14-.14-.14s-.14.06-.14.14v4.96ZM206.42,32.32h0c.13,3.3,1.49,6.38,3.83,8.71,2.34,2.32,5.43,3.66,8.72,3.78h.01s0-4.58,0-4.58c0-.28.23-.51.51-.51s.51.23.51.51v4.57h.01c3.28-.15,6.35-1.52,8.66-3.85,2.31-2.34,3.64-5.44,3.75-8.72h0s-4.51-.01-4.51-.01c-.28,0-.51-.23-.51-.51s.23-.51.51-.51h4.5,0c-.15-3.25-1.5-6.3-3.8-8.6-2.3-2.3-5.35-3.64-8.6-3.79h-.01s0,4.58,0,4.58c0,.28-.23.51-.51.51s-.51-.23-.51-.51v-4.59h-.01c-3.29.11-6.39,1.46-8.73,3.78-2.34,2.33-3.69,5.42-3.82,8.71h0s4.65.01,4.65.01c.28,0,.51.23.51.51s-.23.51-.51.51h-4.65ZM218.96,44.78h-.19c-3.2-.17-6.22-1.5-8.5-3.77-2.28-2.26-3.63-5.27-3.81-8.47v-.2s4.61,0,4.61,0c.29,0,.53-.24.53-.53s-.24-.53-.53-.53h-4.62v-.2c.19-3.2,1.54-6.22,3.82-8.48,2.28-2.27,5.3-3.61,8.51-3.77h.19s0,4.55,0,4.55c0,.29.24.53.53.53s.53-.24.53-.53v-4.56h.2c3.16.2,6.13,1.54,8.37,3.78,2.24,2.24,3.59,5.21,3.79,8.36v.2s-4.46,0-4.46,0c-.29,0-.53.24-.53.53s.24.53.53.53h4.48v.19c-.16,3.2-1.49,6.22-3.74,8.5-2.25,2.28-5.25,3.64-8.44,3.84h-.2s0-4.54,0-4.54c0-.29-.24-.53-.53-.53s-.53.24-.53.53v4.55ZM206.84,32.71c.22,3.03,1.52,5.88,3.69,8.03,2.17,2.16,5.02,3.44,8.06,3.64v-4.16c0-.5.4-.9.9-.9s.9.4.9.9v4.15c3.02-.23,5.86-1.55,8-3.71,2.14-2.17,3.42-5.03,3.61-8.06h-4.09c-.5,0-.9-.4-.9-.9s.41-.9.9-.9h4.08c-.24-2.99-1.53-5.8-3.66-7.93-2.13-2.13-4.94-3.42-7.94-3.65v4.16c0,.5-.4.9-.9.9s-.9-.4-.9-.9v-4.17c-3.04.2-5.9,1.49-8.07,3.65-2.17,2.16-3.47,5.01-3.68,8.05h4.23c.5,0,.9.4.9.9s-.4.9-.9.9h-4.23Z"/>
  </g>
  <path class="cls-1" d="M251.11,31.8c0,8.78-3.11,16.28-9.31,22.49-6.21,6.21-13.71,9.31-22.49,9.31s-16.28-3.1-22.49-9.31c-6.21-6.21-9.31-13.71-9.31-22.49s3.1-16.28,9.31-22.49c6.21-6.21,13.71-9.31,22.49-9.31s16.28,3.11,22.49,9.31c6.21,6.21,9.31,13.71,9.31,22.49ZM236.57,31.8c0-4.78-1.68-8.86-5.04-12.22-3.36-3.36-7.44-5.04-12.22-5.04s-8.78,1.68-12.18,5.04c-3.39,3.36-5.09,7.44-5.09,12.22s1.7,8.86,5.09,12.22c3.39,3.36,7.45,5.04,12.18,5.04s8.86-1.68,12.22-5.04,5.04-7.44,5.04-12.22Z"/>
  <path class="cls-3" d="M219.3,59.23c-7.65,0-13.99-2.63-19.4-8.03-5.41-5.4-8.03-11.75-8.03-19.4s2.63-13.99,8.03-19.4c5.4-5.41,11.75-8.03,19.4-8.03s13.99,2.63,19.4,8.03c5.4,5.41,8.03,11.75,8.03,19.4s-2.63,13.99-8.03,19.4c-5.4,5.4-11.75,8.03-19.4,8.03ZM219.3,10.16c-5.9,0-11.03,2.12-15.26,6.31-4.24,4.2-6.38,9.35-6.38,15.33s2.15,11.13,6.38,15.33c4.22,4.19,9.36,6.31,15.26,6.31s11.12-2.13,15.31-6.32c4.2-4.2,6.32-9.35,6.32-15.31s-2.13-11.12-6.33-15.31c-4.2-4.2-9.35-6.32-15.31-6.32Z"/>
  <circle class="cls-4" cx="219.05" cy="31.8" r="3.33"/>
  <path class="cls-2" d="M219.05,35.32c-1.94,0-3.52-1.58-3.52-3.52s1.58-3.52,3.52-3.52,3.52,1.58,3.52,3.52-1.58,3.52-3.52,3.52ZM219.05,28.65c-1.74,0-3.15,1.41-3.15,3.15s1.41,3.15,3.15,3.15,3.15-1.41,3.15-3.15-1.41-3.15-3.15-3.15Z"/>
  <path class="cls-1" d="M63.87,61.84H28.95l-5.96-14.34h19.57l-10.62-23.99L15.29,61.84H0v-14.34h6.05L26.4,1.51h11.07l26.4,60.33Z"/>
  <polygon class="cls-3" points="31.62 57.76 29.23 52.29 48.83 52.29 31.94 13.43 12.63 57.76 4.08 57.76 4.08 52.29 8.7 52.29 29.05 5.59 34.81 5.59 57.6 57.76 31.62 57.76"/>
  <path class="cls-1" d="M122.45,61.84h-51.09V1.51h51.09v13.62h-37.47v9.37h28.95v13.62h-28.95v9.37h37.47v14.34Z"/>
  <polygon class="cls-3" points="75.43 57.76 75.43 5.59 118.37 5.59 118.37 11.06 80.9 11.06 80.9 28.59 109.85 28.59 109.85 34.05 80.9 34.05 80.9 52.29 118.37 52.29 118.37 57.76 75.43 57.76"/>
  <path class="cls-1" d="M185.34,61.84h-18.96l-21.12-23.71,5.96-13.62h15.75c1.31,0,2.41-.45,3.32-1.36.91-.91,1.36-2.01,1.36-3.32s-.46-2.41-1.36-3.32c-.91-.91-2.02-1.36-3.32-1.36h-23.42v46.7h-13.62V1.51h37.04c5.05,0,9.37,1.79,12.94,5.36,3.58,3.58,5.36,7.89,5.36,12.94s-1.79,9.37-5.35,12.94c-3.57,3.58-7.87,5.36-12.92,5.36l-3.06-.04,21.39,23.75Z"/>
  <path class="cls-3" d="M168.17,57.76l-18.11-20.43,3.82-8.74h13.09c2.39,0,4.53-.88,6.21-2.56,1.67-1.68,2.56-3.82,2.56-6.21s-.88-4.53-2.55-6.2c-1.68-1.68-3.83-2.56-6.21-2.56h-27.5v46.7h-5.46V5.59h32.96c3.96,0,7.25,1.36,10.06,4.17,2.81,2.81,4.17,6.1,4.17,10.06s-1.36,7.25-4.16,10.06c-2.79,2.8-6.06,4.16-10,4.17l-12.56-.17,21.51,23.88h-7.81Z"/>
</svg>