<?xml version="1.0" encoding="UTF-8"?>
<svg id="Layer_1" data-name="Layer 1" xmlns="http://www.w3.org/2000/svg" viewBox="0 0 270.36 44.71">
  <defs>
    <style>
      .cls-1 {
        fill: #02182b;
      }

      .cls-2 {
        fill: #437a89;
        stroke: #3ca6bf;
        stroke-miterlimit: 10;
      }
    </style>
  </defs>
  <path class="cls-1" d="M0,44.71v-16.39h7.27c-.99-.62-1.92-1.37-2.8-2.24C1.51,23.1,0,19.47,0,15.27S1.51,7.45,4.47,4.48C7.44,1.51,11.07,0,15.27,0h26.81v16.39h-7.27c.99.62,1.92,1.37,2.8,2.24,2.97,2.97,4.48,6.6,4.48,10.8s-1.51,7.83-4.47,10.8c-2.97,2.97-6.61,4.47-10.8,4.47H0Z"/>
  <path class="cls-2" d="M38.08,29.43c0,3.11-1.1,5.77-3.3,7.97-2.2,2.2-4.86,3.3-7.97,3.3H4v-8.39h22.81c.8,0,1.48-.28,2.05-.84.56-.56.84-1.24.84-2.04s-.28-1.48-.84-2.04c-.56-.56-1.24-.84-2.05-.84h-11.54c-3.11,0-5.77-1.1-7.97-3.3s-3.3-4.86-3.3-7.97,1.1-5.76,3.3-7.97c2.2-2.21,4.86-3.31,7.97-3.31h22.81v8.39H15.27c-.8,0-1.48.28-2.04.84s-.84,1.24-.84,2.04.28,1.49.84,2.05,1.24.84,2.04.84h11.54c3.11,0,5.77,1.1,7.97,3.3,2.2,2.2,3.3,4.86,3.3,7.97Z"/>
  <polygon class="cls-1" points="44.18 44.71 44.18 0 85.75 0 78.58 16.39 78.39 16.39 78.39 28.32 83.64 28.32 83.64 44.71 44.18 44.71"/>
  <path class="cls-2" d="M79.64,40.7h-31.46V4h31.46l-3.67,8.39h-19.4v5.77h17.83v8.39h-17.83v5.77h23.07v8.39Z"/>
  <path class="cls-1" d="M112.42,44.71l-8.29-9.03v9.03h-16.39V0h26.81c4.2,0,7.83,1.51,10.8,4.48,2.97,2.97,4.47,6.6,4.47,10.79s-1.5,7.83-4.46,10.8c-1.4,1.4-2.95,2.48-4.64,3.23l14.31,15.41h-22.61Z"/>
  <path class="cls-2" d="M125.85,40.7h-11.68l-13-14.16,3.67-8.39h9.7c.8,0,1.48-.28,2.05-.84.56-.56.84-1.24.84-2.05s-.28-1.48-.84-2.04c-.56-.56-1.24-.84-2.05-.84h-14.42v28.32h-8.39V4h22.81c3.11,0,5.77,1.1,7.97,3.31,2.2,2.2,3.3,4.86,3.3,7.97s-1.1,5.77-3.3,7.97-4.85,3.3-7.95,3.3l-1.88-.03,13.17,14.18Z"/>
  <polygon class="cls-1" points="145.99 44.71 126.2 0 144.35 0 152.01 17.29 159.66 0 177.82 0 158.02 44.71 145.99 44.71"/>
  <path class="cls-2" d="M171.67,4l-16.26,36.7h-6.82l-16.25-36.7h9.4l10.26,23.17,10.26-23.17h9.4Z"/>
  <polygon class="cls-1" points="179.52 44.71 179.52 0 221.09 0 213.92 16.39 213.73 16.39 213.73 28.32 218.97 28.32 218.97 44.71 179.52 44.71"/>
  <path class="cls-2" d="M214.97,40.7h-31.46V4h31.46l-3.67,8.39h-19.4v5.77h17.83v8.39h-17.83v5.77h23.07v8.39Z"/>
  <path class="cls-1" d="M247.76,44.71l-8.29-9.03v9.03h-16.39V0h26.81c4.2,0,7.83,1.51,10.8,4.48,2.97,2.97,4.47,6.6,4.47,10.79s-1.5,7.83-4.46,10.8c-1.4,1.4-2.95,2.48-4.64,3.23l14.31,15.41h-22.61Z"/>
  <path class="cls-2" d="M261.19,40.7h-11.68l-13-14.16,3.67-8.39h9.7c.8,0,1.48-.28,2.05-.84.56-.56.84-1.24.84-2.05s-.28-1.48-.84-2.04c-.56-.56-1.24-.84-2.05-.84h-14.42v28.32h-8.39V4h22.81c3.11,0,5.77,1.1,7.97,3.31,2.2,2.2,3.3,4.86,3.3,7.97s-1.1,5.77-3.3,7.97-4.85,3.3-7.95,3.3l-1.88-.03,13.17,14.18Z"/>
</svg>